<svg version="1.1" id="Layer_1" xmlns="http://www.w3.org/2000/svg" xmlns:xlink="http://www.w3.org/1999/xlink" x="0px" y="0px"
	 width="100%" viewBox="0 0 1024 448" enable-background="new 0 0 1024 448" xml:space="preserve">
<path fill="#000000" opacity="1.000000" stroke="none" 
	d="
M220.485138,263.822205 
	C232.897125,268.429230 244.918167,273.259918 257.508026,275.860535 
	C263.832886,277.167023 270.107117,278.976807 276.822113,279.265411 
	C284.139557,279.579926 291.434265,281.756470 298.884338,282.398468 
	C311.741943,283.506500 324.566010,285.003174 337.404114,286.337189 
	C349.260101,287.569122 361.107452,288.891846 372.973755,290.014740 
	C396.089050,292.202087 419.279480,292.769379 442.481476,293.095093 
	C449.934570,293.199677 457.382080,293.661194 464.834900,293.850494 
	C467.372040,293.914886 470.385681,293.760468 470.499329,290.430054 
	C470.609650,287.196411 468.171997,286.183502 465.081696,285.940613 
	C456.611328,285.274872 448.156738,284.330872 439.741486,286.312958 
	C437.054016,286.946014 434.767151,285.704742 432.631775,284.609283 
	C430.011841,283.265198 430.027100,279.495575 432.295471,277.550964 
	C434.825867,275.381714 437.643890,274.477417 441.042847,274.753448 
	C448.495819,275.358643 455.951233,276.147461 463.449585,275.826813 
	C469.181091,275.581726 471.229156,272.149292 468.941498,266.859436 
	C467.231018,262.904236 467.585999,258.673035 467.871002,254.567352 
	C468.111969,251.095322 471.308197,250.044632 474.023926,249.657288 
	C477.022125,249.229630 479.929688,250.332535 481.402771,253.408508 
	C483.753418,258.316895 485.013855,263.311066 483.134338,268.793610 
	C481.352905,273.990082 482.334076,275.514221 487.853180,275.792908 
	C510.782532,276.950745 533.686890,277.384491 556.631958,275.332520 
	C565.826904,274.510223 575.153137,274.750793 584.411987,274.117645 
	C586.434570,273.979340 587.750671,273.490387 589.176880,272.148468 
	C591.401184,270.055542 594.450195,269.658844 597.076904,270.665039 
	C599.366943,271.542297 599.911194,274.217316 599.903625,276.638397 
	C599.893616,279.844269 597.715271,281.234558 595.046387,282.225677 
	C589.131165,284.422302 582.894531,283.717834 576.809082,284.207794 
	C551.981018,286.206848 527.072144,286.211456 502.190582,286.839600 
	C497.555634,286.956573 492.902557,286.403839 488.259491,286.132416 
	C485.517548,285.972168 482.789398,286.460114 482.802216,289.700012 
	C482.814514,292.792664 485.154266,293.190552 488.121307,293.174316 
	C521.674316,292.990662 555.230347,292.788605 588.781494,293.071442 
	C604.377686,293.202911 619.927002,292.561371 635.497314,292.090057 
	C658.909485,291.381439 682.297791,293.761871 705.719971,292.852753 
	C709.708618,292.697937 713.703186,292.591797 717.693787,292.623718 
	C720.903259,292.649384 721.601807,291.179474 721.229126,288.198608 
	C719.415283,273.689789 716.456360,259.356598 714.399353,244.911346 
	C712.348328,230.507492 710.296814,215.935150 711.898621,201.249939 
	C712.328918,197.304947 714.071411,194.514877 718.536133,194.839355 
	C722.898376,195.156403 726.081604,198.600296 724.937500,202.671188 
	C721.191528,216.000076 724.262939,229.080261 725.696899,242.238968 
	C727.373169,257.621582 731.269958,272.626373 733.472961,287.917999 
	C733.937439,291.141937 735.843445,292.602814 738.844543,292.699921 
	C747.278687,292.972931 755.549377,292.044312 763.858337,290.309479 
	C769.489990,289.133606 775.738464,286.215790 781.023865,292.358917 
	C783.077942,294.746246 782.961060,296.367767 781.439575,298.400604 
	C778.784485,301.948059 775.040771,302.802765 770.794312,302.550751 
	C761.657715,302.008423 752.514648,301.563141 743.370483,301.164459 
	C737.799133,300.921539 736.524353,301.882935 737.270203,307.400146 
	C738.309753,315.090515 740.314087,322.645905 741.517944,330.319885 
	C742.700195,337.856598 743.722473,345.400604 746.305237,352.625549 
	C746.636230,353.551422 746.713501,354.746613 747.350220,355.352966 
	C749.827515,357.712036 750.309998,360.599976 748.129822,362.861145 
	C746.112793,364.953156 743.749268,367.657990 739.971069,366.286224 
	C736.651367,365.080933 734.603516,363.533173 734.440613,359.262878 
	C734.228210,353.694855 732.885681,348.119415 731.579529,342.654694 
	C729.217529,332.772156 728.122742,322.707977 726.672058,312.688110 
	C726.247620,309.756409 725.373108,306.875793 724.533813,304.022095 
	C723.679626,301.117798 721.226685,301.200989 718.827026,301.249420 
	C706.231689,301.503876 693.602539,302.426514 681.048279,301.816620 
	C661.892456,300.885986 642.721802,300.564667 623.625732,301.502472 
	C600.844421,302.621246 578.087341,301.904694 555.323608,302.264313 
	C537.749329,302.541962 520.168213,302.416229 502.590271,302.394592 
	C498.969727,302.390137 495.370331,302.702026 491.725739,302.602844 
	C486.620483,302.463867 485.313538,304.907074 486.768799,309.757324 
	C489.341614,318.332306 492.041840,326.881409 492.810181,335.875488 
	C492.866791,336.538116 492.993591,337.198273 493.003510,337.860809 
	C493.069000,342.221130 490.586548,345.593201 487.218994,345.752869 
	C483.519775,345.928284 479.255707,342.098511 479.758881,338.078003 
	C480.970276,328.398865 477.874023,319.413361 476.023865,310.226532 
	C474.858673,304.440735 472.849792,303.083893 466.904907,302.945709 
	C440.885834,302.340881 414.846710,301.950287 388.887848,300.086334 
	C369.190765,298.671967 349.585938,296.005676 329.897797,294.421967 
	C316.356232,293.332703 302.881165,291.617462 289.326752,290.583954 
	C277.691833,289.696777 266.163940,286.985016 254.648376,284.571716 
	C239.753510,281.450226 225.483505,276.414917 212.175919,269.725433 
	C201.776840,264.497986 191.692688,257.088013 187.828308,244.568542 
	C187.212524,242.573578 186.980133,240.731705 187.355103,238.714844 
	C188.026047,235.106110 188.413681,231.521820 187.076416,227.914459 
	C185.424057,223.457230 188.595016,220.124588 190.601303,217.008286 
	C197.657700,206.047867 206.738892,197.036682 217.495346,189.465347 
	C222.902573,185.659241 228.340042,181.850525 233.660873,177.919418 
	C236.701218,175.673157 240.271576,175.224731 243.444580,173.379425 
	C253.755447,167.382965 264.425262,162.098312 275.876709,158.214249 
	C282.352631,156.017746 288.651917,155.014313 295.256470,154.710831 
	C299.392334,154.520782 301.123749,152.312515 299.172577,148.663269 
	C297.418976,145.383499 296.805481,141.833618 295.565979,138.452026 
	C294.523743,135.608551 294.617035,133.899948 297.683441,132.474915 
	C301.024933,130.922058 303.182190,131.899719 304.690369,134.812958 
	C305.985077,137.313873 307.226959,139.904251 308.012238,142.595123 
	C310.358246,150.633942 313.563538,158.144302 319.746277,164.063141 
	C320.103607,164.405182 320.380890,164.835052 320.673279,165.240036 
	C323.039215,168.516754 323.898438,171.932999 320.843323,175.181229 
	C319.230957,176.895523 313.197296,175.228348 311.058044,172.561478 
	C309.923370,171.146988 308.952789,169.546555 308.186951,167.900360 
	C305.430450,161.974762 301.909821,160.474426 295.506866,161.577957 
	C270.927551,165.814087 249.650513,177.651199 229.307953,191.070175 
	C216.969055,199.209564 206.374802,209.675461 198.708969,222.687439 
	C194.373077,230.047165 195.743683,241.671768 200.966995,248.426132 
	C206.187393,255.176697 213.170547,259.338959 220.485138,263.822205 
z"/>
<path fill="#000000" opacity="1.000000" stroke="none" 
	d="
M771.121826,261.980408 
	C773.330750,257.660309 776.624512,257.146240 780.400635,258.935913 
	C784.084961,260.682037 783.906250,264.302246 783.851990,267.548615 
	C783.814819,269.772675 781.700317,270.779755 779.930542,271.677155 
	C777.968018,272.672272 776.809753,271.104584 775.737244,269.918152 
	C773.734192,267.702301 771.913696,265.330994 771.121826,261.980408 
z"/>
<path fill="#000000" opacity="1.000000" stroke="none" 
	d="
M520.898560,253.582642 
	C525.738831,249.551651 530.740967,250.599136 533.603638,256.019714 
	C534.932007,258.535034 533.376709,260.071075 531.576660,261.361786 
	C528.894836,263.284698 526.052551,262.865265 523.837524,260.812286 
	C521.919312,259.034363 518.152649,257.699738 520.898560,253.582642 
z"/>
</svg>